<?xml version="1.0" encoding="iso-8859-1"?>
<!-- Generator: Adobe Illustrator 19.0.0, SVG Export Plug-In . SVG Version: 6.00 Build 0)  -->
<svg version="1.1" id="Capa_1" xmlns="http://www.w3.org/2000/svg" xmlns:xlink="http://www.w3.org/1999/xlink" x="0px" y="0px"
	 viewBox="0 0 512 512" style="enable-background:new 0 0 512 512;" xml:space="preserve">
<path style="fill:#FCCA75;" d="M396.19,12.19c-47.128,0-85.333,38.205-85.333,85.333h85.333l-56.93,63.39
	c15.555,14.202,35.877,22.028,56.93,21.943c47.128,0,85.333-38.205,85.333-85.333S443.319,12.19,396.19,12.19z"/>
<polygon style="fill:#F7E06F;" points="335.238,158.476 85.126,158.476 213.333,301.47 339.261,160.914 396.19,97.524 "/>
<path d="M396.19,0c-49.103,0.085-90.502,36.62-96.683,85.333H30.476c-6.729,0-12.19,5.449-12.19,12.178
	c0,3.011,1.109,5.912,3.121,8.155l179.736,200.485v181.467H128V512h170.667v-24.381h-73.143v-181.48l115.261-128.549
	c16.238,11.374,35.584,17.469,55.406,17.457c53.858,0,97.524-43.666,97.524-97.524S450.06,0,396.19,0z M310.857,109.714h58.002
	l-32.329,35.998H90.051l-32.268-35.998H310.857z M314.734,170.094l-101.4,113.115L111.909,170.094H314.734z M396.19,170.667
	c-13.824,0.024-27.355-3.913-39.01-11.337l48.104-53.638c4.51-4.998,4.12-12.702-0.878-17.213c-2.255-2.036-5.181-3.157-8.216-3.145
	h-72.131c6.729-39.826,44.483-66.658,84.309-59.928s66.67,44.483,59.941,84.309C462.36,144.908,431.884,170.667,396.19,170.667z"/>
<g>
</g>
<g>
</g>
<g>
</g>
<g>
</g>
<g>
</g>
<g>
</g>
<g>
</g>
<g>
</g>
<g>
</g>
<g>
</g>
<g>
</g>
<g>
</g>
<g>
</g>
<g>
</g>
<g>
</g>
</svg>
